<svg width="24" height="24" viewBox="0 0 24 24" fill="none" xmlns="http://www.w3.org/2000/svg">
<rect width="100" height="100" rx="12"/>
<path d="M8.50512 7.99996C8.37736 7.99996 8.24375 8.04293 8.14625 8.14036C7.95128 8.33572 7.95128 8.66348 8.14625 8.85884L11.2823 11.9971L8.14625 15.1353C7.95128 15.3307 7.95128 15.6585 8.14625 15.8538C8.34126 16.0487 8.66898 16.0487 8.864 15.8538L12 12.7156L15.136 15.8538C15.3311 16.0487 15.6588 16.0487 15.8538 15.8538C16.0488 15.6585 16.0488 15.3307 15.8538 15.1353L12.7177 11.9971L15.8538 8.85884C16.0488 8.66348 16.0488 8.33572 15.8538 8.14036C15.7563 8.04293 15.6226 7.99996 15.4949 7.99996C15.3672 7.99996 15.2336 8.04293 15.136 8.14036L12 11.2786L8.864 8.14036C8.76649 8.04293 8.63289 7.99996 8.50512 7.99996Z" fill="#292A24"/>
</svg>